<?xml version="1.0" ?><svg viewBox="0 0 32 32" xmlns="http://www.w3.org/2000/svg"><g data-name="Layer 53" id="Layer_53"><path d="M25,17H7a.92.92,0,0,0-1,.8v6.4A.92.92,0,0,0,7,25H25a.92.92,0,0,0,1-.8V17.8A.92.92,0,0,0,25,17Zm-9,2.35a.24.24,0,0,1,0,.09s0,0,0,0,0,0,0,0h-.79v2.73a.09.09,0,0,1,0,.05l-.06,0-.09,0h-.31l-.1,0-.06,0a.09.09,0,0,1,0-.05V19.5h-.79s0,0,0,0,0,0,0,0a.24.24,0,0,1,0-.09.53.53,0,0,1,0-.13.49.49,0,0,1,0-.13.2.2,0,0,1,0-.09.05.05,0,0,1,0-.05H16A.05.05,0,0,1,16,19a.2.2,0,0,1,0,.09.49.49,0,0,1,0,.13A.53.53,0,0,1,16,19.35Zm2.14,2.43a1,1,0,0,1-.25.33,1,1,0,0,1-.38.21,1.63,1.63,0,0,1-.45.06,1.42,1.42,0,0,1-.3,0l-.25-.07-.18-.09a.29.29,0,0,1-.1-.08.19.19,0,0,1-.05-.09,1,1,0,0,1,0-.19v-.13a.64.64,0,0,1,0-.09.11.11,0,0,1,0-.05.05.05,0,0,1,0,0,.23.23,0,0,1,.1.05l.16.09a1,1,0,0,0,.23.1,1,1,0,0,0,.31,0,.66.66,0,0,0,.21,0,.35.35,0,0,0,.16-.09.32.32,0,0,0,.1-.13.52.52,0,0,0,0-.18.42.42,0,0,0-.05-.2.78.78,0,0,0-.16-.15l-.21-.12-.25-.12-.24-.14a1.3,1.3,0,0,1-.22-.19.93.93,0,0,1-.15-.26,1,1,0,0,1-.06-.37.93.93,0,0,1,.09-.42.79.79,0,0,1,.22-.31,1,1,0,0,1,.34-.18,1.4,1.4,0,0,1,.41-.06.9.9,0,0,1,.23,0,.8.8,0,0,1,.21.05l.17.07.1.06s0,0,0,.05l0,0a.25.25,0,0,0,0,.08v.11a.45.45,0,0,1,0,.13.22.22,0,0,1,0,.09.08.08,0,0,1,0,.05H18l-.08,0-.15-.08-.19-.08a1,1,0,0,0-.25,0,.48.48,0,0,0-.18,0,.24.24,0,0,0-.13.08.28.28,0,0,0-.08.11.4.4,0,0,0,0,.15A.31.31,0,0,0,17,20a.54.54,0,0,0,.15.15l.22.12.25.12a2,2,0,0,1,.25.14,1.3,1.3,0,0,1,.22.19,1,1,0,0,1,.15.27.88.88,0,0,1,.06.35A1.16,1.16,0,0,1,18.17,21.78ZM23,26h2v1a2,2,0,0,1-2,2H9a2,2,0,0,1-2-2V26H9v1H23ZM9,16H7V5A2,2,0,0,1,9,3H20.41L25,7.59V16H23V9H19a1,1,0,0,1-1-1V5H9Zm16,1H7a.92.92,0,0,0-1,.8v6.4A.92.92,0,0,0,7,25H25a.92.92,0,0,0,1-.8V17.8A.92.92,0,0,0,25,17Zm-9,2.35a.24.24,0,0,1,0,.09s0,0,0,0,0,0,0,0h-.79v2.73a.09.09,0,0,1,0,.05l-.06,0-.09,0h-.31l-.1,0-.06,0a.09.09,0,0,1,0-.05V19.5h-.79s0,0,0,0,0,0,0,0a.24.24,0,0,1,0-.09.53.53,0,0,1,0-.13.49.49,0,0,1,0-.13.2.2,0,0,1,0-.09.05.05,0,0,1,0-.05H16A.05.05,0,0,1,16,19a.2.2,0,0,1,0,.09.49.49,0,0,1,0,.13A.53.53,0,0,1,16,19.35Zm2.14,2.43a1,1,0,0,1-.25.33,1,1,0,0,1-.38.21,1.63,1.63,0,0,1-.45.06,1.42,1.42,0,0,1-.3,0l-.25-.07-.18-.09a.29.29,0,0,1-.1-.08.19.19,0,0,1-.05-.09,1,1,0,0,1,0-.19v-.13a.64.64,0,0,1,0-.09.11.11,0,0,1,0-.05.05.05,0,0,1,0,0,.23.23,0,0,1,.1.05l.16.09a1,1,0,0,0,.23.1,1,1,0,0,0,.31,0,.66.66,0,0,0,.21,0,.35.35,0,0,0,.16-.09.32.32,0,0,0,.1-.13.52.52,0,0,0,0-.18.42.42,0,0,0-.05-.2.78.78,0,0,0-.16-.15l-.21-.12-.25-.12-.24-.14a1.3,1.3,0,0,1-.22-.19.93.93,0,0,1-.15-.26,1,1,0,0,1-.06-.37.93.93,0,0,1,.09-.42.79.79,0,0,1,.22-.31,1,1,0,0,1,.34-.18,1.4,1.4,0,0,1,.41-.06.9.9,0,0,1,.23,0,.8.8,0,0,1,.21.05l.17.07.1.06s0,0,0,.05l0,0a.25.25,0,0,0,0,.08v.11a.45.45,0,0,1,0,.13.22.22,0,0,1,0,.09.08.08,0,0,1,0,.05H18l-.08,0-.15-.08-.19-.08a1,1,0,0,0-.25,0,.48.48,0,0,0-.18,0,.24.24,0,0,0-.13.08.28.28,0,0,0-.08.11.4.4,0,0,0,0,.15A.31.31,0,0,0,17,20a.54.54,0,0,0,.15.15l.22.12.25.12a2,2,0,0,1,.25.14,1.3,1.3,0,0,1,.22.19,1,1,0,0,1,.15.27.88.88,0,0,1,.06.35A1.16,1.16,0,0,1,18.17,21.78Z"/></g></svg>